# xmcd
#
# Track frame offsets:
#	150
#	22090
#	58452
#	79760
#	101585
#
# Disc length: 1637 seconds
#
# Revision: 1
# Processed by: cddbd v1.5.1PL0 Copyright (c) Steve Scherf et al.
# Submitted via: CDex 1.50Beta5
#
DISCID=3f066305
DTITLE=アリーヤ - イフ・ユア・ガール・オンリー・ニュー
DYEAR=1996
DGENRE=
TTITLE0=イフ・ユア・ガール・オンリー・ニュー
TTITLE1=イフ・ユア・ガール・オンリー・ニュー
TTITLE2=イフ・ユア・ガール・オンリー・ニュー
TTITLE3=イフ・ユア・ガール・オンリー・ニュー
TTITLE4=イフ・ユア・ガール・オンリー・ニュー
EXTD=
EXTT0=
EXTT1=
EXTT2=
EXTT3=
EXTT4=
PLAYORDER=
